<svg xmlns="http://www.w3.org/2000/svg" width="260" height="260" viewBox="0 0 260 260">
  <!-- Filled glyphs. Mugs: Font Awesome Free 6.7.2 "mug-hot" (solid),
       fontawesome.com, CC BY 4.0. Beans: Phosphor "coffee-bean" (fill),
       phosphoricons.com, MIT. Two diagonal runs per tile, mixed sizes and
       rotations so the repeat reads as a scatter rather than a grid. -->
  <g fill="#e1dcc9">
    <!-- band 1: top-left to mid-right -->
    <g transform="translate(24 30) rotate(-10) scale(0.20)">
      <path d="M88 0C74.7 0 64 10.7 64 24c0 38.9 23.4 59.4 39.1 73.1l1.1 1C120.5 112.3 128 119.9 128 136c0 13.3 10.7 24 24 24s24-10.7 24-24c0-38.9-23.4-59.4-39.1-73.1l-1.1-1C119.5 47.7 112 40.1 112 24c0-13.3-10.7-24-24-24zM32 192c-17.7 0-32 14.3-32 32L0 416c0 53 43 96 96 96l192 0c53 0 96-43 96-96l16 0c61.9 0 112-50.1 112-112s-50.1-112-112-112l-48 0L32 192zm352 64l16 0c26.5 0 48 21.5 48 48s-21.5 48-48 48l-16 0 0-96zM224 24c0-13.3-10.7-24-24-24s-24 10.7-24 24c0 38.9 23.4 59.4 39.1 73.1l1.1 1C232.5 112.3 240 119.9 240 136c0 13.3 10.7 24 24 24s24-10.7 24-24c0-38.9-23.4-59.4-39.1-73.1l-1.1-1C231.5 47.7 224 40.1 224 24z"/>
    </g>
    <g transform="translate(158 52) rotate(40) scale(0.13)">
      <path d="M71.22,190.47a108.88,108.88,0,0,1-33.84,9.16,4,4,0,0,1-3.89-2c-8.67-15.28-11.52-34.29-8-55.15,4.49-26.92,19.09-53.87,41.12-75.9s49-36.63,75.9-41.12c22.79-3.79,43.37,0,59.29,10.6a4,4,0,0,1-1.25,7.23,121,121,0,0,0-21.82,7.46c-21.77,9.9-49.6,31.06-58.52,75.7C114.1,156.73,97.63,178.27,71.22,190.47ZM222.51,58.38a4,4,0,0,0-3.88-2,108.5,108.5,0,0,0-33.85,9.16c-26.41,12.2-42.88,33.74-48.94,64-8.93,44.64-36.75,65.8-58.52,75.7a121,121,0,0,1-21.82,7.46A4,4,0,0,0,54.27,220c11.87,7.92,26.32,12,42.35,12a103.66,103.66,0,0,0,16.92-1.44c26.91-4.49,53.87-19.09,75.9-41.12s36.63-49,41.12-75.9C234,92.68,231.18,73.66,222.51,58.38Z"/>
    </g>
    <g transform="translate(216 104) rotate(15) scale(0.10)">
      <path d="M71.22,190.47a108.88,108.88,0,0,1-33.84,9.16,4,4,0,0,1-3.89-2c-8.67-15.28-11.52-34.29-8-55.15,4.49-26.92,19.09-53.87,41.12-75.9s49-36.63,75.9-41.12c22.79-3.79,43.37,0,59.29,10.6a4,4,0,0,1-1.25,7.23,121,121,0,0,0-21.82,7.46c-21.77,9.9-49.6,31.06-58.52,75.7C114.1,156.73,97.63,178.27,71.22,190.47ZM222.51,58.38a4,4,0,0,0-3.88-2,108.5,108.5,0,0,0-33.85,9.16c-26.41,12.2-42.88,33.74-48.94,64-8.93,44.64-36.75,65.8-58.52,75.7a121,121,0,0,1-21.82,7.46A4,4,0,0,0,54.27,220c11.87,7.92,26.32,12,42.35,12a103.66,103.66,0,0,0,16.92-1.44c26.91-4.49,53.87-19.09,75.9-41.12s36.63-49,41.12-75.9C234,92.68,231.18,73.66,222.51,58.38Z"/>
    </g>
    <!-- band 2: lower-left to bottom-right -->
    <g transform="translate(26 168) rotate(-30) scale(0.12)">
      <path d="M71.22,190.47a108.88,108.88,0,0,1-33.84,9.16,4,4,0,0,1-3.89-2c-8.67-15.28-11.52-34.29-8-55.15,4.49-26.92,19.09-53.87,41.12-75.9s49-36.63,75.9-41.12c22.79-3.79,43.37,0,59.29,10.6a4,4,0,0,1-1.25,7.23,121,121,0,0,0-21.82,7.46c-21.77,9.9-49.6,31.06-58.52,75.7C114.1,156.73,97.63,178.27,71.22,190.47ZM222.51,58.38a4,4,0,0,0-3.88-2,108.5,108.5,0,0,0-33.85,9.16c-26.41,12.2-42.88,33.74-48.94,64-8.93,44.64-36.75,65.8-58.52,75.7a121,121,0,0,1-21.82,7.46A4,4,0,0,0,54.27,220c11.87,7.92,26.32,12,42.35,12a103.66,103.66,0,0,0,16.92-1.44c26.91-4.49,53.87-19.09,75.9-41.12s36.63-49,41.12-75.9C234,92.68,231.18,73.66,222.51,58.38Z"/>
    </g>
    <g transform="translate(102 182) rotate(12) scale(0.13)">
      <path d="M88 0C74.7 0 64 10.7 64 24c0 38.9 23.4 59.4 39.1 73.1l1.1 1C120.5 112.3 128 119.9 128 136c0 13.3 10.7 24 24 24s24-10.7 24-24c0-38.9-23.4-59.4-39.1-73.1l-1.1-1C119.5 47.7 112 40.1 112 24c0-13.3-10.7-24-24-24zM32 192c-17.7 0-32 14.3-32 32L0 416c0 53 43 96 96 96l192 0c53 0 96-43 96-96l16 0c61.9 0 112-50.1 112-112s-50.1-112-112-112l-48 0L32 192zm352 64l16 0c26.5 0 48 21.5 48 48s-21.5 48-48 48l-16 0 0-96zM224 24c0-13.3-10.7-24-24-24s-24 10.7-24 24c0 38.9 23.4 59.4 39.1 73.1l1.1 1C232.5 112.3 240 119.9 240 136c0 13.3 10.7 24 24 24s24-10.7 24-24c0-38.9-23.4-59.4-39.1-73.1l-1.1-1C231.5 47.7 224 40.1 224 24z"/>
    </g>
    <g transform="translate(206 218) rotate(62) scale(0.14)">
      <path d="M71.22,190.47a108.88,108.88,0,0,1-33.84,9.16,4,4,0,0,1-3.89-2c-8.67-15.28-11.52-34.29-8-55.15,4.49-26.92,19.09-53.87,41.12-75.9s49-36.63,75.9-41.12c22.79-3.79,43.37,0,59.29,10.6a4,4,0,0,1-1.25,7.23,121,121,0,0,0-21.82,7.46c-21.77,9.9-49.6,31.06-58.52,75.7C114.1,156.73,97.63,178.27,71.22,190.47ZM222.51,58.38a4,4,0,0,0-3.88-2,108.5,108.5,0,0,0-33.85,9.16c-26.41,12.2-42.88,33.74-48.94,64-8.93,44.64-36.75,65.8-58.52,75.7a121,121,0,0,1-21.82,7.46A4,4,0,0,0,54.27,220c11.87,7.92,26.32,12,42.35,12a103.66,103.66,0,0,0,16.92-1.44c26.91-4.49,53.87-19.09,75.9-41.12s36.63-49,41.12-75.9C234,92.68,231.18,73.66,222.51,58.38Z"/>
    </g>
  </g>
</svg>
